<?xml version="1.0" encoding="utf-8"?>
<!-- Generator: Adobe Illustrator 26.0.2, SVG Export Plug-In . SVG Version: 6.00 Build 0)  -->
<svg version="1.1" xmlns="http://www.w3.org/2000/svg" xmlns:xlink="http://www.w3.org/1999/xlink" x="0px" y="0px"
	 viewBox="0 0 481.83 187.03" style="enable-background:new 0 0 481.83 187.03;" xml:space="preserve">
<g id="j">
	<g>
		<path d="M120.47,22.1v94.89c0,8.24-0.35,15.24-1.05,21c-0.7,5.77-2.29,11.61-4.76,17.55c-4.12,9.97-10.92,17.73-20.39,23.29
			c-9.47,5.56-21,8.34-34.6,8.34c-12.28,0-22.51-1.94-30.7-5.81c-8.2-3.87-14.81-10.13-19.83-18.78c-2.64-4.61-4.78-9.93-6.43-15.94
			c-1.65-6.01-2.47-11.74-2.47-17.17c0-5.76,1.61-10.17,4.82-13.22c3.21-3.05,7.33-4.57,12.36-4.57c4.86,0,8.53,1.4,11,4.2
			c2.47,2.8,4.37,7.17,5.68,13.1c1.4,6.34,2.8,11.41,4.2,15.2c1.4,3.79,3.75,7.04,7.04,9.76c3.29,2.72,7.99,4.08,14.09,4.08
			c16.23,0,24.34-11.9,24.34-35.71V22.1c0-7.41,1.63-12.97,4.88-16.68c3.25-3.71,7.68-5.56,13.28-5.56c5.68,0,10.19,1.85,13.53,5.56
			C118.81,9.12,120.47,14.68,120.47,22.1z"/>
	</g>
</g>
<g id="a">
	<g>
		<path d="M269.13,163.57l-8.65-22.73h-73.64l-8.65,23.23c-3.38,9.06-6.26,15.18-8.65,18.35c-2.39,3.17-6.3,4.76-11.74,4.76
			c-4.61,0-8.69-1.69-12.23-5.07c-3.54-3.38-5.31-7.21-5.31-11.49c0-2.47,0.41-5.02,1.24-7.66c0.82-2.64,2.18-6.3,4.08-11
			l46.33-117.63c1.32-3.38,2.9-7.43,4.76-12.17c1.85-4.74,3.83-8.67,5.93-11.8c2.1-3.13,4.86-5.66,8.28-7.6
			c3.42-1.93,7.64-2.9,12.66-2.9c5.11,0,9.37,0.97,12.79,2.9c3.42,1.94,6.18,4.43,8.28,7.48c2.1,3.05,3.87,6.32,5.31,9.82
			c1.44,3.5,3.27,8.18,5.5,14.02l47.32,116.89c3.71,8.9,5.56,15.36,5.56,19.4c0,4.2-1.75,8.05-5.25,11.55
			c-3.5,3.5-7.72,5.25-12.66,5.25c-2.88,0-5.36-0.51-7.41-1.54c-2.06-1.03-3.79-2.43-5.19-4.2c-1.4-1.77-2.9-4.49-4.51-8.15
			C271.66,169.61,270.28,166.37,269.13,163.57z M196.48,113.28h54.12l-27.31-74.75L196.48,113.28z"/>
	</g>
</g>
<g id="n">
	<g>
		<path d="M377.3,21.85l70.55,106.75V20.86c0-7,1.5-12.25,4.51-15.75c3.01-3.5,7.06-5.25,12.17-5.25c5.27,0,9.43,1.75,12.48,5.25
			c3.05,3.5,4.57,8.75,4.57,15.75v142.46c0,15.9-6.59,23.85-19.77,23.85c-3.29,0-6.26-0.48-8.9-1.42c-2.64-0.95-5.11-2.45-7.41-4.51
			c-2.31-2.06-4.45-4.47-6.43-7.23c-1.98-2.76-3.95-5.58-5.93-8.46L364.33,60.03v106.14c0,6.92-1.61,12.15-4.82,15.69
			c-3.21,3.54-7.33,5.31-12.36,5.31c-5.19,0-9.35-1.79-12.48-5.37c-3.13-3.58-4.7-8.79-4.7-15.63V26.42
			c0-5.93,0.66-10.58,1.98-13.96c1.57-3.71,4.16-6.73,7.78-9.08s7.54-3.52,11.74-3.52c3.29,0,6.12,0.54,8.46,1.61
			c2.35,1.07,4.41,2.51,6.18,4.32c1.77,1.81,3.58,4.16,5.44,7.04C373.41,15.72,375.32,18.72,377.3,21.85z"/>
	</g>
</g>
</svg>
